<svg width="35" height="34" viewBox="0 0 35 34" fill="none" xmlns="http://www.w3.org/2000/svg">
<g clip-path="url(#clip0_237_480)">
<path d="M34.5 17C34.5 7.88736 26.8888 0.5 17.5 0.5C8.11122 0.5 0.5 7.88723 0.5 17C0.5 25.2356 6.71669 32.0618 14.8438 33.2996V21.7695H10.5273V17H14.8438V13.3648C14.8438 9.22953 17.3818 6.94531 21.2648 6.94531C23.1249 6.94531 25.0703 7.26758 25.0703 7.26758V11.3281H22.9267C20.8147 11.3281 20.1562 12.6 20.1562 13.905V17H24.8711L24.1174 21.7695H20.1562V33.2996C28.2833 32.0618 34.5 25.2357 34.5 17Z" fill="#1877F2"/>
<path d="M24.1174 21.7695L24.8711 17H20.1562V13.905C20.1562 12.5999 20.8149 11.3281 22.9267 11.3281H25.0703V7.26758C25.0703 7.26758 23.1249 6.94531 21.2648 6.94531C17.3818 6.94531 14.8438 9.22953 14.8438 13.3648V17H10.5273V21.7695H14.8438V33.2996C15.7225 33.4332 16.6106 33.5002 17.5 33.5C18.3894 33.5003 19.2775 33.4332 20.1562 33.2996V21.7695H24.1174Z" fill="white"/>
</g>
<defs>
<clipPath id="clip0_237_480">
<rect width="34" height="33" fill="white" transform="translate(0.5 0.5)"/>
</clipPath>
</defs>
</svg>
