<svg width="27" height="28" viewBox="0 0 27 28" fill="none" xmlns="http://www.w3.org/2000/svg">
<g clip-path="url(#clip0_237_473)">
<path d="M26.9871 14.2527C26.9871 13.1465 26.8952 12.3393 26.6964 11.5022H13.7689V16.4949H21.3571C21.2042 17.7357 20.378 19.6043 18.5421 20.8599L18.5164 21.027L22.6038 24.121L22.887 24.1486C25.4878 21.8017 26.9871 18.3486 26.9871 14.2527Z" fill="#4285F4"/>
<path d="M13.7689 27.4073C17.4865 27.4073 20.6074 26.2114 22.887 24.1485L18.5421 20.8598C17.3794 21.6521 15.8189 22.2052 13.7689 22.2052C10.1278 22.2052 7.03748 19.8583 5.93586 16.6145L5.77439 16.6279L1.52421 19.8418L1.46863 19.9928C3.73283 24.3876 8.38369 27.4073 13.7689 27.4073Z" fill="#34A853"/>
<path d="M5.93589 16.6144C5.64521 15.7773 5.47699 14.8803 5.47699 13.9536C5.47699 13.0267 5.64522 12.1298 5.92059 11.2927L5.91289 11.1144L1.60945 7.84888L1.46865 7.91432C0.535465 9.73805 0 11.786 0 13.9536C0 16.1211 0.535465 18.169 1.46865 19.9927L5.93589 16.6144Z" fill="#FBBC05"/>
<path d="M13.7689 5.70203C16.3544 5.70203 18.0984 6.79327 19.0929 7.70519L22.9788 3.99794C20.5922 1.83042 17.4865 0.5 13.7689 0.5C8.38369 0.5 3.73283 3.51957 1.46863 7.91439L5.92057 11.2928C7.03748 8.04897 10.1278 5.70203 13.7689 5.70203Z" fill="#EB4335"/>
</g>
<defs>
<clipPath id="clip0_237_473">
<rect width="27" height="27" fill="white" transform="translate(0 0.5)"/>
</clipPath>
</defs>
</svg>
